<?xml version="1.0" encoding="utf-8"?>
<!-- Generator: Adobe Illustrator 24.1.3, SVG Export Plug-In . SVG Version: 6.00 Build 0)  -->
<svg version="1.1" id="Capa_1" xmlns="http://www.w3.org/2000/svg" xmlns:xlink="http://www.w3.org/1999/xlink" x="0px" y="0px"
	 viewBox="0 0 24 24" style="enable-background:new 0 0 24 24;" xml:space="preserve">
<path d="M6,8L6,8c1.1,0,2-0.9,2-2v0c0-1.1-0.9-2-2-2h0C4.9,4,4,4.9,4,6v0C4,7.1,4.9,8,6,8z M18,8L18,8c1.1,0,2-0.9,2-2v0
	c0-1.1-0.9-2-2-2h0c-1.1,0-2,0.9-2,2v0C16,7.1,16.9,8,18,8z M12,8L12,8c1.1,0,2-0.9,2-2v0c0-1.1-0.9-2-2-2h0c-1.1,0-2,0.9-2,2v0
	C10,7.1,10.9,8,12,8z M6,14L6,14c1.1,0,2-0.9,2-2v0c0-1.1-0.9-2-2-2h0c-1.1,0-2,0.9-2,2v0C4,13.1,4.9,14,6,14z M18,14L18,14
	c1.1,0,2-0.9,2-2v0c0-1.1-0.9-2-2-2h0c-1.1,0-2,0.9-2,2v0C16,13.1,16.9,14,18,14z M12,14L12,14c1.1,0,2-0.9,2-2v0c0-1.1-0.9-2-2-2h0
	c-1.1,0-2,0.9-2,2v0C10,13.1,10.9,14,12,14z M6,20L6,20c1.1,0,2-0.9,2-2v0c0-1.1-0.9-2-2-2h0c-1.1,0-2,0.9-2,2v0C4,19.1,4.9,20,6,20
	z M18,20L18,20c1.1,0,2-0.9,2-2v0c0-1.1-0.9-2-2-2h0c-1.1,0-2,0.9-2,2v0C16,19.1,16.9,20,18,20z M12,20L12,20c1.1,0,2-0.9,2-2v0
	c0-1.1-0.9-2-2-2h0c-1.1,0-2,0.9-2,2v0C10,19.1,10.9,20,12,20z"/>
</svg>
